<svg xmlns="http://www.w3.org/2000/svg" viewBox="0 0 64 64">
  <rect width="64" height="64" rx="14" fill="#0F1620"/>
  <g fill="#5DAA2F">
    <ellipse cx="36" cy="13" rx="9" ry="2.6" fill="none" stroke="#5DAA2F" stroke-width="2.4"/>
    <rect x="33" y="17" width="6" height="36" rx="1"/>
    <rect x="6"  y="38" width="4" height="15" rx="1" opacity="0.55"/>
    <rect x="13" y="33" width="4" height="20" rx="1" opacity="0.7"/>
    <rect x="20" y="26" width="4" height="27" rx="1" opacity="0.85"/>
    <rect x="27" y="19" width="4" height="34" rx="1"/>
    <path d="M39 21 C 50 21, 57 26, 60 32 C 58 38, 52 42, 46 44 L 39 46 Z"/>
    <path d="M39 34 C 49 34, 56 37, 60 42 C 56 47, 50 51, 44 53 L 39 53 Z" opacity="0.85"/>
  </g>
</svg>
